Coordinates
version=1
nRows=26
nColumns=22
inDegrees=yes

Units are S.I. units (second, meters, Newtons, ...)
If the header above contains a line with 'inDegrees', this indicates whether rotational values are in degrees (yes) or radians (no).

endheader
time	pelvis_tilt	pelvis_list	pelvis_rotation	pelvis_tx	pelvis_ty	pelvis_tz	hip_flexion_r	hip_adduction_r	hip_rotation_r	knee_angle_r	ankle_angle_r	subtalar_angle_r	hip_flexion_l	hip_adduction_l	hip_rotation_l	knee_angle_l	ankle_angle_l	subtalar_angle_l	lumbar_extension	lumbar_bending	lumbar_rotation
      2.23000000	      5.86375157	     -9.17964308	    -27.40579505	      0.91600522	      0.85415789	      0.64728325	      6.20441463	     12.17173388	     -8.00819333	    -43.79931909	     28.30552453	    -22.46282502	     35.24819573	    -10.03055129	     11.53599542	    -75.20887386	      3.28433857	     -5.07360238	    -19.39023114	      3.69123032	     10.50742061
      2.24000000	      5.97692933	     -8.77456789	    -27.54967077	      0.93012574	      0.85992628	      0.65638991	      4.35649024	     11.70182452	     -7.85817930	    -42.50972108	     27.16484472	    -20.80377066	     35.68367898	     -9.65518361	     10.35145154	    -70.59161294	      2.78057754	     -4.88142654	    -18.98192141	      2.91219905	     12.07155523
      2.25000000	      6.13644447	     -8.43325073	    -27.79724843	      0.94439806	      0.86620338	      0.66579345	      2.35015055	     11.23619315	     -7.64762564	    -41.04974527	     25.73700682	    -19.00955018	     35.60748008	     -9.46568205	      8.88754504	    -65.53758922	      1.96976886	     -4.48371791	    -18.62180887	      2.15356704	     13.65071403
      2.26000000	      6.32463494	     -8.17295785	    -28.14658270	      0.95889244	      0.87280633	      0.67547982	      0.20869013	     10.78948221	     -7.37770382	    -39.44850678	     24.04078504	    -17.05138476	     35.07188024	     -9.44752595	      7.14784634	    -60.15918583	      0.74390234	     -3.80802645	    -18.29456455	      1.45303364	     15.24323921
      2.27000000	      6.53399737	     -7.98575829	    -28.58642780	      0.97367344	      0.87954476	      0.68540371	     -2.03590730	     10.34976274	     -7.04167475	    -37.74509772	     22.11275318	    -15.00504036	     34.13356156	     -9.53819800	      5.13418536	    -54.57392895	     -0.93780175	     -2.77610966	    -17.98330377	      0.82176411	     16.79605167
      2.28000000	      6.70908472	     -7.84920982	    -29.12509106	      0.98873942	      0.88612818	      0.69547955	     -4.26844175	      9.92181031	     -6.58863098	    -36.02770177	     20.00243915	    -12.82485025	     32.92147202	     -9.65860304	      2.92295070	    -48.92177241	     -3.08070705	     -1.27252970	    -17.62455738	      0.27862708	     18.32320174
      2.29000000	      6.84822223	     -7.74008078	    -29.72665936	      1.00412097	      0.89234578	      0.70559074	     -6.42830509	      9.46723564	     -6.08395817	    -34.38077167	     17.79687766	    -10.64876165	     31.53350187	     -9.71546697	      0.58350747	    -43.35429415	     -5.60723402	      0.65528504	    -17.20926747	     -0.17453872	     19.73048484
      2.30000000	      6.89423714	     -7.63423383	    -30.37519982	      1.01974405	      0.89791049	      0.71560412	     -8.38116874	      8.99717918	     -5.51644481	    -32.91686055	     15.58646073	     -8.48974815	     30.14102636	     -9.64719562	     -1.71639253	    -38.03619935	     -8.39674347	      2.93335549	    -16.68773256	     -0.51442247	     20.99427727
      2.31000000	      6.82045460	     -7.51344957	    -31.04757462	      1.03552936	      0.90262045	      0.72542742	    -10.03176698	      8.51551938	     -4.91102409	    -31.73947329	     13.45661555	     -6.42243697	     28.88291485	     -9.43206442	     -3.83174219	    -33.13268494	    -11.23051303	      5.38320423	    -16.04411016	     -0.73231501	     22.06381205
      2.32000000	      6.56779933	     -7.36636163	    -31.74002337	      1.05127997	      0.90626742	      0.73495706	    -11.24430496	      8.07147320	     -4.19910167	    -30.97229162	     11.54627490	     -4.37496887	     27.90517659	     -9.08161220	     -5.48484093	    -28.76636990	    -13.97905842	      7.89736520	    -15.24938691	     -0.80602870	     22.98466653
      2.33000000	      6.19712702	     -7.18964252	    -32.43478469	      1.06694286	      0.90887829	      0.74424750	    -12.04708611	      7.63524955	     -3.44864301	    -30.67179597	      9.85374326	     -2.49697371	     27.19378534	     -8.65936404	     -6.77763085	    -25.03988944	    -16.39236477	     10.20307215	    -14.37201390	     -0.77897956	     23.68019138
      2.34000000	      5.70812411	     -6.98964629	    -33.14154184	      1.08235096	      0.91041357	      0.75329286	    -12.40047305	      7.23719929	     -2.61441618	    -30.90880029	      8.48524059	     -0.71975589	     26.75799877	     -8.22166168	     -7.62686848	    -21.99074065	    -18.43624254	     12.18189873	    -13.44185731	     -0.65616073	     24.21349926
      2.35000000	      5.16932045	     -6.77841878	    -33.85867506	      1.09746064	      0.91095444	      0.76215535	    -12.36405329	      6.85971916	     -1.73848980	    -31.70229451	      7.42277935	      0.91747524	     26.51573465	     -7.81535007	     -8.17589971	    -19.64007362	    -20.04610253	     13.68787035	    -12.53695276	     -0.47851874	     24.58903522
      2.36000000	      4.63995667	     -6.57516760	    -34.58806454	      1.11222912	      0.91056488	      0.77087570	    -11.99299214	      6.49417724	     -0.85834863	    -33.06268433	      6.65370069	      2.38921941	     26.38319121	     -7.46808558	     -8.54907691	    -17.98117814	    -21.22175659	     14.64802962	    -11.73135460	     -0.27467009	     24.83700685
      2.37000000	      4.16939119	     -6.40348745	    -35.32685832	      1.12663940	      0.90928348	      0.77945828	    -11.34712388	      6.12996611	     -0.03784057	    -34.97201449	      6.17291077	      3.66529176	     26.28897656	     -7.18999784	     -8.83837632	    -16.99749095	    -21.96739566	     15.05686554	    -11.09235026	     -0.05932371	     24.98980569
      2.38000000	      3.78721839	     -6.26801598	    -36.06540864	      1.14072225	      0.90711839	      0.78792998	    -10.48236414	      5.76349369	      0.71125078	    -37.36977059	      5.99563760	      4.67257619	     26.18171944	     -6.96519260	     -9.09703166	    -16.63815785	    -22.23463938	     14.96343713	    -10.64077594	      0.14749786	     25.03835179
      2.39000000	      3.53836149	     -6.19720079	    -36.77893672	      1.15448745	      0.90411963	      0.79622675	     -9.46201733	      5.36666912	      1.27452871	    -40.21548783	      6.04644790	      5.43737604	     26.00313449	     -6.77007948	     -9.31966365	    -16.84936542	    -22.04782101	     14.39657940	    -10.44189065	      0.33940450	     25.00468807
      2.40000000	      3.42370378	     -6.16650743	    -37.45996545	      1.16795581	      0.90024122	      0.80432241	     -8.29228666	      4.90565244	      1.64185850	    -43.45083661	      6.39100713	      5.82896737	     25.76057890	     -6.56216420	     -9.48496977	    -17.55742149	    -21.23098276	     13.39596803	    -10.47022493	      0.48955787	     24.90050877
      2.41000000	      3.47396395	     -6.18101533	    -38.05104241	      1.18118314	      0.89555435	      0.81214981	     -7.05156739	      4.36021458	      1.79173128	    -46.96414411	      7.00235035	      5.83310060	     25.45006874	     -6.29196191	     -9.54222084	    -18.71365392	    -19.60153110	     11.74713330	    -10.74990466	      0.57907100	     24.61329535
      2.42000000	      3.65196585	     -6.19215978	    -38.57561442	      1.19407882	      0.89006426	      0.81965871	     -5.67586022	      3.71059927	      1.80310762	    -50.71866550	      7.86256198	      5.36782209	     25.13955522	     -5.93105799	     -9.46562915	    -20.21629370	    -17.21756351	      9.64078042	    -11.21444039	      0.58421320	     24.22293772
      2.43000000	      3.96054621	     -6.16453363	    -39.00248633	      1.20662815	      0.88386973	      0.82677095	     -4.16744188	      2.93202452	      1.70785078	    -54.63743429	      8.92706691	      4.50951150	     24.89939448	     -5.43329268	     -9.26018344	    -22.04197999	    -14.06910836	      7.06482518	    -11.83894643	      0.47371525	     23.68000644
      2.44000000	      4.39578219	     -6.07182069	    -39.30665880	      1.21878141	      0.87712985	      0.83343815	     -2.52771617	      2.02316996	      1.54887546	    -58.64253766	     10.11315914	      3.33057152	     24.80571658	     -4.77464741	     -8.94889083	    -24.18696042	    -10.34993971	      4.13230669	    -12.59997269	      0.22311459	     22.96193992
      2.45000000	      4.92750019	     -5.88324707	    -39.48681431	      1.23046212	      0.87000447	      0.83963132	     -0.72532922	      1.01059737	      1.40257770	    -62.66338907	     11.38716286	      1.95761811	     24.95320416	     -3.95415358	     -8.56248729	    -26.65873967	     -6.39331519	      1.05962287	    -13.44889027	     -0.17119960	     22.05748053
      2.46000000	      5.51087723	     -5.58719986	    -39.55009169	      1.24161192	      0.86269324	      0.84536733	      1.27175322	     -0.05532959	      1.31962559	    -66.62553597	     12.62197262	      0.54548349	     25.40254064	     -2.98537393	     -8.06787740	    -29.44094056	     -2.54386524	     -1.93166077	    -14.33137333	     -0.68979108	     20.99068540
      2.47000000	      6.14258106	     -5.20116158	    -39.50909223	      1.25222920	      0.85549582	      0.85070603	      3.41654889	     -1.13425665	      1.33545567	    -70.42399938	     13.82844423	     -0.84196020	     26.10292260	     -1.88305030	     -7.48970354	    -32.45499078	      0.90449889	     -4.68062209	    -15.24292615	     -1.31383367	     19.78352442
      2.48000000	      6.76542302	     -4.75130686	    -39.40418990	      1.26232829	      0.84864983	      0.85576724	      5.71668067	     -2.15271959	      1.46904104	    -73.97351684	     14.86741943	     -2.05991198	     27.00345171	     -0.71518352	     -6.85582361	    -35.58936298	      3.81575489	     -6.99157333	    -16.12511821	     -1.98316583	     18.48941908
